<svg xmlns="http://www.w3.org/2000/svg" viewBox="0 0 415 122" xmlns:v="https://vecta.io/nano"><style><![CDATA[.x{fill:#80d9f4}]]></style><path d="M.1 61.6h30c16.6 0 30 13.4 30 30h0c0 16.6-13.4 30-30 30h0c-16.6 0-30-13.4-30-30v-30zM0 30C0 13.4 13.4 0 30 0h323c16.6 0 30 13.4 30 30h0c0 16.6-13.4 30-30 30H0V30z" fill-opacity=".5" fill="#36343b"/><path d="M25.6 25V11.4h4.7c3.1 0 5 1.6 5 4.3s-2 4.3-5 4.3h-2.8v5h-1.9zm4.6-12.1h-2.8v5.6h2.7c2 0 3.2-1.1 3.2-2.8s-1.2-2.8-3.1-2.8zM37.4 25V10.6h1.8V25h-1.8zm13.8-3.5c-.6 2.5-2.4 3.7-4.8 3.7-3.1 0-4.9-2.1-4.9-5.5 0-3.6 1.9-5.6 4.8-5.6 3 0 4.8 2.1 4.8 5.4v.5h-7.8c.1 2.4 1.2 3.7 3.1 3.7 1.5 0 2.6-.7 2.9-2.2h1.9zm-4.9-5.9c-1.7 0-2.7 1.1-3 3h5.9c-.2-1.9-1.3-3-2.9-3zm8.7 2.2h-1.8c.3-2.3 1.9-3.7 4.5-3.7 2.8 0 4.2 1.7 4.2 4.1v4.2c0 1.2.1 2 .4 2.6h-1.9c-.2-.4-.3-1-.3-1.7-.9 1.3-2.3 1.9-3.6 1.9-2.2 0-3.7-1-3.7-3 0-1.5.8-2.5 2.4-3 1.4-.5 2.9-.6 4.9-.6v-.2c0-1.7-.8-2.7-2.6-2.7-1.4-.1-2.2.8-2.5 2.1zm-.3 4.4c0 1 .8 1.6 2.1 1.6 2 0 3.4-1.5 3.4-3.4v-.5c-4.5 0-5.5 1-5.5 2.3zm11.5-5.1c0 3 6.9.5 6.9 4.9 0 2-1.8 3.2-4.3 3.2s-4.3-1.2-4.7-3.7h1.8c.2 1.5 1.3 2.3 3 2.3 1.6 0 2.4-.7 2.4-1.7 0-2.9-6.8-.5-6.8-4.9 0-1.6 1.3-3.1 3.9-3.1 2.3 0 4 1.1 4.3 3.7h-1.8c-.3-1.7-1.2-2.3-2.7-2.3-1.3.1-2 .7-2 1.6zm18.1 4.4c-.6 2.5-2.4 3.7-4.8 3.7-3.1 0-4.9-2.1-4.9-5.5 0-3.6 1.9-5.6 4.8-5.6 3 0 4.8 2.1 4.8 5.4v.5h-7.8c.1 2.4 1.2 3.7 3.1 3.7 1.5 0 2.6-.7 2.9-2.2h1.9zm-4.8-5.9c-1.7 0-2.7 1.1-3 3h5.9c-.2-1.9-1.3-3-2.9-3zm15.1 9.6c-2.8 0-4.5-2.1-4.5-5.5 0-3.6 1.7-5.6 4.5-5.6 1.3 0 2.3.5 3 1.5v-5h1.8V25h-1.8v-1.3c-.7 1-1.7 1.5-3 1.5zm.1-1.5c1.9 0 2.9-1.4 2.9-4s-1-4.1-2.9-4.1c-1.8 0-2.8 1.4-2.8 4.1 0 2.6 1 4 2.8 4zm11.8 1.5c-3 0-4.9-2.1-4.9-5.5 0-3.6 1.9-5.6 4.9-5.6s4.9 2.1 4.9 5.6c-.1 3.6-2 5.5-4.9 5.5zm0-1.5c2 0 3.1-1.4 3.1-4s-1.1-4.1-3.1-4.1-3.1 1.4-3.1 4.1c0 2.6 1.1 4 3.1 4zm11.1 1.3V14.4h1.8v1.4c.7-1.1 1.9-1.7 3.3-1.7 2.3 0 3.6 1.3 3.6 3.8V25h-1.8v-6.7c0-1.6-.7-2.6-2.3-2.6-1.8 0-2.8 1.6-2.8 3.1V25h-1.8zm15.8.2c-3 0-4.9-2.1-4.9-5.5 0-3.6 1.9-5.6 4.9-5.6s4.9 2.1 4.9 5.6c-.1 3.6-2 5.5-4.9 5.5zm0-1.5c2 0 3.1-1.4 3.1-4s-1.1-4.1-3.1-4.1-3.1 1.4-3.1 4.1c0 2.6 1.1 4 3.1 4zm7.3-1.8v-6.2h-1.5v-1.4h1.5v-2.4h1.8v2.4h2.3v1.4h-2.3v6.2c0 1.3.4 1.9 1.9 1.9h.4v1.3c-.2.1-.6.2-1.1.2-2-.1-3-1.1-3-3.4zm10 0v-6.2h-1.5v-1.4h1.5v-2.4h1.8v2.4h2.3v1.4h-2.3v6.2c0 1.3.4 1.9 1.9 1.9h.4v1.3c-.2.1-.6.2-1.1.2-2-.1-3-1.1-3-3.4zm7.4-4.1h-1.8c.3-2.3 1.9-3.7 4.5-3.7 2.8 0 4.2 1.7 4.2 4.1v4.2c0 1.2.1 2 .4 2.6h-1.9c-.2-.4-.3-1-.3-1.7-.9 1.3-2.3 1.9-3.6 1.9-2.2 0-3.7-1-3.7-3 0-1.5.8-2.5 2.4-3 1.4-.5 2.9-.6 4.9-.6v-.2c0-1.7-.8-2.7-2.6-2.7-1.4-.1-2.2.8-2.5 2.1zm-.3 4.4c0 1 .8 1.6 2.1 1.6 2 0 3.4-1.5 3.4-3.4v-.5c-4.5 0-5.5 1-5.5 2.3zM168 25V10.6h1.8v8.3l4.6-4.6h2.2l-4.8 4.7 5.1 5.9h-2.2l-4.8-5.4V25H168zm18.7-3.5c-.6 2.5-2.4 3.7-4.8 3.7-3.1 0-4.9-2.1-4.9-5.5 0-3.6 1.9-5.6 4.8-5.6 3 0 4.8 2.1 4.8 5.4v.5h-7.8c.1 2.4 1.2 3.7 3.1 3.7 1.5 0 2.6-.7 2.9-2.2h1.9zm-4.9-5.9c-1.7 0-2.7 1.1-3 3h5.9c-.1-1.9-1.2-3-2.9-3zm11.4 6.3v-6.2h-1.5v-1.4h1.5v-2.4h1.8v2.4h2.3v1.4H195v6.2c0 1.3.4 1.9 1.9 1.9h.4v1.3c-.2.1-.6.2-1.1.2-2-.1-3-1.1-3-3.4zM199 25V10.6h1.8v5.2c.7-1.1 1.9-1.7 3.3-1.7 2.3 0 3.6 1.3 3.6 3.8V25h-1.8v-6.7c0-1.6-.7-2.6-2.3-2.6-1.8 0-2.8 1.6-2.8 3.1V25H199zm11.5-12v-2.4h1.8V13h-1.8zm0 12V14.4h1.8V25h-1.8zm5.8-7.9c0 3 6.9.5 6.9 4.9 0 2-1.8 3.2-4.3 3.2s-4.3-1.2-4.7-3.7h1.8c.2 1.5 1.3 2.3 3 2.3 1.6 0 2.4-.7 2.4-1.7 0-2.9-6.8-.5-6.8-4.9 0-1.6 1.3-3.1 3.9-3.1 2.3 0 4 1.1 4.3 3.7H221c-.3-1.7-1.2-2.3-2.7-2.3-1.2.1-2 .7-2 1.6zm13.2 4.8v-6.2H228v-1.4h1.5v-2.4h1.8v2.4h2.3v1.4h-2.3v6.2c0 1.3.4 1.9 1.9 1.9h.4v1.3c-.2.1-.6.2-1.1.2-2-.1-3-1.1-3-3.4zm10.1 3.3c-3 0-4.9-2.1-4.9-5.5 0-3.6 1.9-5.6 4.9-5.6s4.9 2.1 4.9 5.6c0 3.6-1.9 5.5-4.9 5.5zm0-1.5c2 0 3.1-1.4 3.1-4s-1.1-4.1-3.1-4.1-3.1 1.4-3.1 4.1c.1 2.6 1.2 4 3.1 4zm11.5 1.5c-3 0-4.9-2.1-4.9-5.5 0-3.6 1.9-5.6 4.9-5.6s4.9 2.1 4.9 5.6c-.1 3.6-1.9 5.5-4.9 5.5zm0-1.5c2 0 3.1-1.4 3.1-4s-1.1-4.1-3.1-4.1-3.1 1.4-3.1 4.1c0 2.6 1.1 4 3.1 4zm12.4-6.6c0 3 6.9.5 6.9 4.9 0 2-1.8 3.2-4.3 3.2s-4.3-1.2-4.7-3.7h1.8c.2 1.5 1.3 2.3 3 2.3 1.6 0 2.4-.7 2.4-1.7 0-2.9-6.8-.5-6.8-4.9 0-1.6 1.3-3.1 3.9-3.1 2.3 0 4 1.1 4.3 3.7h-1.8c-.3-1.7-1.2-2.3-2.7-2.3-1.2.1-2 .7-2 1.6zm18.2 4.4c-.6 2.5-2.4 3.7-4.8 3.7-3.1 0-4.9-2.1-4.9-5.5 0-3.6 1.9-5.6 4.8-5.6 3 0 4.8 2.1 4.8 5.4v.5h-7.8c.1 2.4 1.2 3.7 3.1 3.7 1.5 0 2.6-.7 2.9-2.2h1.9zm-4.9-5.9c-1.7 0-2.7 1.1-3 3h5.9c-.2-1.9-1.2-3-2.9-3zM284 25V14.4h1.8V16c.7-1.3 1.9-1.9 3.1-1.9.4 0 .8.1 1 .3V16c-.3-.1-.7-.1-1.1-.1-2.1 0-3 1.3-3 3.2V25H284zm7.4-12v-2.4h1.8V13h-1.8zm0 12V14.4h1.8V25h-1.8zm8.9.2c-3 0-4.9-2.1-4.9-5.5 0-3.6 1.9-5.6 4.9-5.6s4.9 2.1 4.9 5.6c-.1 3.6-1.9 5.5-4.9 5.5zm0-1.5c2 0 3.1-1.4 3.1-4s-1.1-4.1-3.1-4.1-3.1 1.4-3.1 4.1c0 2.6 1.1 4 3.1 4zm13.9-3v-6.3h1.8V25h-1.8v-1.4c-.7 1.1-1.8 1.7-3.2 1.7-2.2 0-3.5-1.3-3.5-3.8v-7.1h1.8v6.7c0 1.6.7 2.6 2.3 2.6s2.6-1.5 2.6-3zm5.8-3.6c0 3 6.9.5 6.9 4.9 0 2-1.8 3.2-4.3 3.2s-4.3-1.2-4.7-3.7h1.8c.2 1.5 1.3 2.3 3 2.3 1.6 0 2.4-.7 2.4-1.7 0-2.9-6.8-.5-6.8-4.9 0-1.6 1.3-3.1 3.9-3.1 2.3 0 4 1.1 4.3 3.7h-1.8c-.3-1.7-1.2-2.3-2.7-2.3-1.2.1-2 .7-2 1.6zm9 7.9V10.6h1.8V25H329zm5.1 4.6c-.4 0-.8-.1-1-.2V28h.5c1.3 0 1.7-.3 2.7-2.6l.4-.8-4.3-10.3h1.9l2.9 7 .5 1.4.5-1.4 2.8-7h1.8l-5 12c-1.2 2.7-1.9 3.3-3.7 3.3zm10.9-7.9V11.4h1.7v10.3H345zm-.2 3.3v-2.2h2.2V25h-2.2zm-307 24l-2.9-10-.3-1.1-.4 1.1-2.9 10h-2.2l-4.3-13.6h2L29.9 46l.3 1 .3-1 3.1-10.6h2l3 10.6.3 1 .3-1 3.2-10.6h1.9L39.9 49h-2.1zm16.9-3.5c-.6 2.5-2.4 3.7-4.8 3.7-3.1 0-4.9-2.1-4.9-5.5 0-3.6 1.9-5.6 4.8-5.6 3 0 4.8 2.1 4.8 5.4v.5h-7.8c.1 2.4 1.2 3.7 3.1 3.7 1.5 0 2.6-.7 2.9-2.2h1.9zm-4.9-5.9c-1.7 0-2.7 1.1-3 3h5.9c-.2-1.9-1.2-3-2.9-3zm12.8 2.2h-1.8c.3-2.3 1.9-3.7 4.5-3.7 2.8 0 4.2 1.7 4.2 4.1v4.2c0 1.2.1 2 .4 2.6H68c-.2-.4-.3-1-.3-1.7-.9 1.3-2.3 1.9-3.6 1.9-2.2 0-3.7-1-3.7-3 0-1.5.8-2.5 2.4-3 1.4-.5 2.9-.6 4.9-.6v-.2c0-1.7-.8-2.7-2.6-2.7-1.5-.1-2.3.8-2.5 2.1zm-.4 4.4c0 1 .8 1.6 2.1 1.6 2 0 3.4-1.5 3.4-3.4v-.5c-4.5 0-5.5 1-5.5 2.3zM72.4 49V38.4h1.8V40c.7-1.3 1.9-1.9 3.1-1.9.4 0 .8.1 1 .3V40c-.3-.1-.7-.1-1.1-.1-2.1 0-3 1.3-3 3.2V49h-1.8zm16.4-3.5c-.6 2.5-2.4 3.7-4.8 3.7-3.1 0-4.9-2.1-4.9-5.5 0-3.6 1.9-5.6 4.8-5.6 3 0 4.8 2.1 4.8 5.4v.5h-7.8c.1 2.4 1.2 3.7 3.1 3.7 1.5 0 2.6-.7 2.9-2.2h1.9zM84 39.6c-1.7 0-2.7 1.1-3 3h5.9c-.2-1.9-1.3-3-2.9-3zm15.4 9.6c-3 0-4.9-2.1-4.9-5.5 0-3.6 1.9-5.6 4.9-5.6s4.9 2.1 4.9 5.6c0 3.6-1.9 5.5-4.9 5.5zm0-1.5c2 0 3.1-1.4 3.1-4s-1.1-4.1-3.1-4.1-3.1 1.4-3.1 4.1c.1 2.6 1.2 4 3.1 4zm7.2 1.3V38.4h1.8v1.4c.7-1.1 1.9-1.7 3.3-1.7 2.3 0 3.6 1.3 3.6 3.8V49h-1.8v-6.7c0-1.6-.7-2.6-2.3-2.6-1.8 0-2.8 1.6-2.8 3.1V49h-1.8zm11.4 0V34.6h1.8V49H118zm5 4.6c-.4 0-.8-.1-1-.2V52h.5c1.3 0 1.7-.3 2.7-2.6l.4-.8-4.3-10.3h1.9l2.9 7 .5 1.4.5-1.4 2.8-7h1.8l-5 12c-1.1 2.7-1.8 3.3-3.7 3.3zm12.8-13.8v-1.4h1.5v-.7c0-2.2.9-3.3 2.9-3.3.4 0 .8.1 1 .2v1.3h-.2c-1.5 0-1.9.6-1.9 1.9v.7h2.1v1.4H139V49h-1.8v-9.2h-1.4zm6.7 9.2V34.6h1.8V49h-1.8zm11.4-4.3v-6.3h1.8V49h-1.8v-1.4c-.7 1.1-1.8 1.7-3.2 1.7-2.2 0-3.5-1.3-3.5-3.8v-7.1h1.8v6.7c0 1.6.7 2.6 2.3 2.6 1.5 0 2.6-1.5 2.6-3zm4.8 1.2v-6.2h-1.5v-1.4h1.5v-2.4h1.8v2.4h2.3v1.4h-2.3v6.2c0 1.3.4 1.9 1.9 1.9h.4v1.3c-.2.1-.6.2-1.1.2-2.1-.1-3-1.1-3-3.4zm6 0v-6.2h-1.5v-1.4h1.5v-2.4h1.8v2.4h2.3v1.4h-2.3v6.2c0 1.3.4 1.9 1.9 1.9h.4v1.3c-.2.1-.6.2-1.1.2-2.1-.1-3-1.1-3-3.4zm14.9-.4c-.6 2.5-2.4 3.7-4.8 3.7-3.1 0-4.9-2.1-4.9-5.5 0-3.6 1.9-5.6 4.8-5.6 3 0 4.8 2.1 4.8 5.4v.5h-7.8c.1 2.4 1.2 3.7 3.1 3.7 1.5 0 2.6-.7 2.9-2.2h1.9zm-4.8-5.9c-1.7 0-2.7 1.1-3 3h5.9c-.2-1.9-1.3-3-2.9-3zm7.1 9.4V38.4h1.8V40c.7-1.3 1.9-1.9 3.1-1.9.4 0 .8.1 1 .3V40c-.3-.1-.7-.1-1.1-.1-2.1 0-3 1.3-3 3.2V49h-1.8zm20.6-3.5c-.6 2.5-2.4 3.7-4.8 3.7-3.1 0-4.9-2.1-4.9-5.5 0-3.6 1.9-5.6 4.8-5.6 3 0 4.8 2.1 4.8 5.4v.5h-7.8c.1 2.4 1.2 3.7 3.1 3.7 1.5 0 2.6-.7 2.9-2.2h1.9zm-4.8-5.9c-1.7 0-2.7 1.1-3 3h5.9c-.2-1.9-1.3-3-2.9-3zm7.1 9.4V38.4h1.8v1.4c.7-1.1 1.9-1.7 3.3-1.7 2.3 0 3.6 1.3 3.6 3.8V49h-1.8v-6.7c0-1.6-.7-2.6-2.3-2.6-1.8 0-2.8 1.6-2.8 3.1V49h-1.8zm11.7-3.1v-6.2H215v-1.4h1.5v-2.4h1.8v2.4h2.3v1.4h-2.3v6.2c0 1.3.4 1.9 1.9 1.9h.4v1.3c-.2.1-.6.2-1.1.2-2.1-.1-3-1.1-3-3.4zm5.8 3.1V34.6h1.8v5.2c.7-1.1 1.9-1.7 3.3-1.7 2.3 0 3.6 1.3 3.6 3.8V49h-1.8v-6.7c0-1.6-.7-2.6-2.3-2.6-1.8 0-2.8 1.6-2.8 3.1V49h-1.8zm18.2-4.3v-6.3h1.8V49h-1.8v-1.4c-.7 1.1-1.8 1.7-3.2 1.7-2.2 0-3.5-1.3-3.5-3.8v-7.1h1.8v6.7c0 1.6.7 2.6 2.3 2.6s2.6-1.5 2.6-3zm5.8-3.6c0 3 6.9.5 6.9 4.9 0 2-1.8 3.2-4.3 3.2s-4.3-1.2-4.7-3.7h1.8c.2 1.5 1.3 2.3 3 2.3 1.6 0 2.4-.7 2.4-1.7 0-2.9-6.8-.5-6.8-4.9 0-1.6 1.3-3.1 3.9-3.1 2.3 0 4 1.1 4.3 3.7H251c-.3-1.7-1.2-2.3-2.7-2.3-1.2.1-2 .7-2 1.6zm9-4.1v-2.4h1.8V37h-1.8zm0 12V38.4h1.8V49h-1.8zm6.2-7.2h-1.8c.3-2.3 1.9-3.7 4.5-3.7 2.8 0 4.2 1.7 4.2 4.1v4.2c0 1.2.1 2 .4 2.6H267c-.2-.4-.3-1-.3-1.7-.9 1.3-2.3 1.9-3.6 1.9-2.2 0-3.7-1-3.7-3 0-1.5.8-2.5 2.4-3 1.4-.5 2.9-.6 4.9-.6v-.2c0-1.7-.8-2.7-2.6-2.7-1.5-.1-2.4.8-2.6 2.1zm-.3 4.4c0 1 .8 1.6 2.1 1.6 2 0 3.4-1.5 3.4-3.4v-.5c-4.5 0-5.5 1-5.5 2.3zm11.4-5.1c0 3 6.9.5 6.9 4.9 0 2-1.8 3.2-4.3 3.2s-4.3-1.2-4.7-3.7h1.8c.2 1.5 1.3 2.3 3 2.3 1.6 0 2.4-.7 2.4-1.7 0-2.9-6.8-.5-6.8-4.9 0-1.6 1.3-3.1 3.9-3.1 2.3 0 4 1.1 4.3 3.7h-1.8c-.3-1.7-1.2-2.3-2.7-2.3-1.2.1-2 .7-2 1.6zm9.3 4.8v-6.2h-1.5v-1.4h1.5v-2.4h1.8v2.4h2.3v1.4h-2.3v6.2c0 1.3.4 1.9 1.9 1.9h.4v1.3c-.2.1-.6.2-1.1.2-2.1-.1-3-1.1-3-3.4zm7-4.8c0 3 6.9.5 6.9 4.9 0 2-1.8 3.2-4.3 3.2s-4.3-1.2-4.7-3.7h1.8c.2 1.5 1.3 2.3 3 2.3 1.6 0 2.4-.7 2.4-1.7 0-2.9-6.8-.5-6.8-4.9 0-1.6 1.3-3.1 3.9-3.1 2.3 0 4 1.1 4.3 3.7h-1.8c-.3-1.7-1.2-2.3-2.7-2.3-1.2.1-2 .7-2 1.6zm8.8 7.9v-2.2h2.2V49h-2.2z" fill="#78fcb0"/><ellipse cx="30.1" cy="94.3" rx="20.6" ry="20.1" fill="#fff"/><path d="M51.3 91.3c-.1.1 0 .2 0 .3.1.1 0 .2 0 .3-.1.2 0 .3 0 .5v.5c0 .2-.2.2-.3.2l-1.3.3c-.5.1-1 .3-1.5.6a.76.76 0 0 1-.4.2h-.1c-.1 0-.3 0-.3.2h-.1c-.1 0-.2.1-.2.1-.1 0-.1.1-.2.1-.1.1-.2.1-.2.2-.1 0-.1.1-.2.1s-.2.1-.2.2c-.3.2-.6.4-.8.7-.1.1-.1.2-.3.2-.1 0-.2 0-.2.1s-.1.2-.2.2l-.3.3c-.1 0-.1.1-.1.2s-.1.1-.1.2c-.1 0-.1.1-.1.2l-.1.1c-.1 0-.1.1-.1.2s-.1.1-.1.2l-.2.2c-.1.2-.2.3-.3.4l-.2.2v.1c-.1.1-.2.2-.2.3v.2c0 .1-.1.2-.2.1-.4.1-.7.3-1.1.4-1.8.7-3.6 1.2-5.4 1.5-.9.2-1.8.3-2.7.4-.1.1-.2 0-.3 0H33c-.1.1-.3 0-.4 0-.2 0-.4.1-.6.1h-.5-.3c-.1-.2 0-.3 0-.5l.7-5.7c0-.1 0-.3.1-.4h.1c.2.1.2.3.4.3 0 0 .1 0 .1.1l.2.2s.1 0 .1.1c.1.1.2.1.2.1.7.3 1.3.6 2.1.8.5.1 1 .2 1.5.2h1c.3 0 .5 0 .8-.1h.3c.2-.1.5-.2.7-.2.3.1.5 0 .7-.2.2-.1.4-.3.7-.3.2.1.3 0 .3-.2 0-.1.1-.1.2-.1s.2-.1.2-.1c.1-.1.3-.2.5-.3.1 0 .1-.1.2-.1h.1c.1 0 .1-.1.1-.1 0-.1.1-.1.2-.1s.1-.1.1-.2c.2-.3.4-.5.7-.7.1 0 .2 0 .2-.1s0-.1.1-.2c.1 0 .1-.1.1-.1v-.1c.1-.1.1-.1.1-.2.1-.2.2-.3.3-.4s.1-.1.1-.2 0-.1.1-.2.3-.1.2-.3c0-.3.2-.6.3-.9.1-.1.1-.2.1-.4.2-.7.3-1.3.3-2v-1-.5-.3c-.1-.2-.1-.4-.1-.7 0-.2 0-.3-.1-.4l-.7-1.8c0-.1 0-.2-.1-.3v-.1c0-.2-.2-.4-.4-.5-.1-.1-.2-.2-.2-.3s-.1-.1-.1-.2l-.2-.2c0-.1-.1-.1-.2-.2-.2-.1-.4-.3-.5-.5 0-.1 0-.2-.2-.2-.1 0-.2-.1-.2-.2s-.1-.1-.2-.2h-.1c0-.1-.1-.1-.2-.1h-.1c-.1-.1-.2-.2-.4-.2a.76.76 0 0 1-.4-.2c.5.1.4.1.3.1-.4-.2-.8-.4-1.3-.5-.5-.2-1.1-.3-1.6-.4h-.3-.4c-.1-.1-.3 0-.4 0h-.5-.3-.2-.3c-.1 0-.2.1-.3.1-.2 0-.3 0-.4.1-.1 0-.1.1-.2.1-.1-.1-.3 0-.3.1-.2.1-.4.2-.7.3-.1 0-.2 0-.2.1h-.1c-.1 0-.2.1-.3.2 0 0-.1.1-.2.1s-.2.1-.2.1c-.1.1-.2.1-.3.2-.1 0-.2.1-.2.2-.1.1-.2.1-.3.2-.1 0-.1.1-.2.2s-.2.2-.3.2c-.3.1-.5.3-.5.5 0 .1-.1.2-.2.3-.1 0-.1.1-.2.2s-.1.2-.2.3l-.2.2c-.1.1-.1.2-.2.3h-.2s-.1 0-.1-.1c-.2-.3-.5-.6-.7-1 0-.1 0-.1-.1-.1-.3-.2-.5-.4-.6-.6 0-.1 0-.2-.2-.1-.3-.1-.5-.3-.7-.5a.55.55 0 0 0-.5-.3l-1.8-.8c-.9-.3-1.7-.4-2.6-.4h-.6-.3c-.8.1-1.7.3-2.5.7-.2 0-.4.1-.6.3-.7.4-1.3.8-1.9 1.4s-1.1 1.2-1.5 1.9c0 .1-.1.2-.2.2-.2-.1-.2.1-.2.2-.4.8-.6 1.7-.7 2.6v.4 1.2.3c.1.5.1 1 .3 1.5 0 .2 0 .3.1.5.1.1.1.3.2.4 0 .1 0 .2.1.3s.1.2.2.3c0 .1.1.1.1.2.3.4.6.8.8 1.3 0 .1-.1.2-.1.2l-1.4 1.4-.1.1c-.1 0-.2-.1-.3-.1-.5-.4-1-.7-1.5-1l-.1-.1c0-.1-.1-.2-.2-.2-.5-.4-.9-.9-1.3-1.3l-2.3-2.3a16.96 16.96 0 0 1 .6-3.1 10.64 10.64 0 0 1 .9-2.5c.5-1.3 1.2-2.5 2-3.7.5-.8 1.1-1.5 1.7-2.2l1.2-1.2c1.1-1.1 2.4-2 3.7-2.9 1.3-.8 2.7-1.4 4.1-1.9l2.2-.6c.5-.1 1-.4 1.3-.9l3.5-4.9c.1-.2.2-.1.3 0l2 2.8 1.5 2c.5.6 1.1.9 1.8 1.1 1.3.3 2.5.7 3.7 1.3 1.6.7 3.1 1.7 4.5 2.8l2.3 2.2c1.1 1.2 2.1 2.6 2.9 4 .6 1.1 1.2 2.3 1.6 3.5.3 1 .6 2 .7 3.1.1.5.1 1 .2 1.5-.2.1-.2.2-.2.3z" class="x"/><path d="M12.6 94.3c.7.4 1.3.8 1.9 1.3.2 0 .3.1.4.2 1 1 1.8 2 2.4 3.2.1.1.2.3.1.4.6 1.2.9 2.5 1 3.9v.3.7.3a9.3 9.3 0 0 1-1.5 4.6c-.1.2-.2.2-.4 0l-1.6-1.5c-1.3-1.4-2.5-2.8-3.4-4.5-.5-.9-.9-1.8-1.3-2.7-.4-1.1-.8-2.2-1-3.4-.1-.7-.3-1.3-.3-2-.1-.1 0-.2 0-.3 0-.2-.1-.5-.1-.7v-.4c0-.2 0-.4-.1-.7v-.1h.2c1 .2 2 .4 3 .9.1.1.2.1.3.1s.1.1.2.1c.1.2.2.2.2.3zm30.3 5.1c.1 0 .1-.1.1-.2a.78.78 0 0 0 .4-.4c.2-.4.5-.7.7-1s.3-.5.5-.7.3-.3.4-.6l.2-.2c0-.1.1-.1.2-.2l.2-.2c.4-.2.7-.5 1.1-.7.1-.1.1-.2.2-.3 0-.1.1-.1.2-.2.3-.1.7-.2.8-.5.1-.1.3-.1.4-.2.3.2.5-.1.7-.2.1 0 .1-.1.2-.1.3 0 .5 0 .6-.3.3-.1.6-.2.9-.2.2-.1.4-.1.6-.2l.1.1v.2.6.5.3a26.29 26.29 0 0 1-.6 3.9c-.4 1.4-.9 2.8-1.6 4.1a22.55 22.55 0 0 1-2.4 3.6c-.8 1-1.7 1.9-2.5 2.8-.2.2-.4.4-.5.6-.1.1-.2.1-.3 0-.5-1-1-2-1.3-3.1l-.3-1.7v-.5c-.1-1.6.2-3.2.9-4.6 0-.2 0-.3.1-.4z" fill="#53b4f2"/><path d="M17.3 99.5a11.18 11.18 0 0 0-1.9-2.9 4.74 4.74 0 0 0-1-1l1.4-1.4.3-.3c.1 0 .1 0 .2.1.2.3.4.4.6.7 0 .1.1.1.2.2.7.6 1.5 1.1 2.4 1.5.7.3 1.3.5 2 .5h.3.3c.3.1.7 0 1 0 1-.1 2-.3 3-.7.3 0 .5 0 .6-.3l.9-.6c.1-.1.2-.1.3 0 .2.8.2 1.7.4 2.5l.5 3.6c0 .2.1.3 0 .5h-.3-.3-.5-.3c-.1-.1-.3 0-.4 0h-.3c-.1-.1-.2 0-.3 0-.7 0-1.4-.2-2.1-.3l-3.3-.7c-1.1-.3-2.3-.7-3.4-1.2-.1-.2-.2-.2-.3-.2z" class="x"/><path d="M28.8 101.9c-.1-.5-.1-1-.2-1.5l-.3-2.3c-.1-.6-.2-1.3-.2-1.9 0-.3-.1-.6-.1-.9-.1-.2-.1-.3-.1-.5v-.6c0-1.1.8-1.9 2-2.1h.4c1.1.1 1.9.9 2 2v.6.2.3.2c-.3.1-.3.4-.3.6l-.4 3.1-.3 2.5v.2l-.3 1.7-.3 1.4c-.2.4-.4.6-.8.6s-.5-.3-.6-.6c-.2-.3-.2-.7-.2-1.1-.1-.5-.2-1.1-.2-1.6-.1-.1-.1-.2-.1-.3zm-4 14.2c-.4 0-.7-.2-.9-.5-.2-.2-.2-.3-.5-.1-.6.3-1.4.1-1.7-.7 0-.1-.1-.2-.1-.3V112c0-.7.7-1.3 1.4-1.1.4.1.7.3.9.6.1.1.1.1.2.1.2-.1.4-.2.6-.2h.4c.4.1.8.3 1 .8 0 .1.1.1.2 0 .2-.1.4-.3.6-.3h.5c.6.2.9.6 1 1.2v2.4c-.1.4-.2.8-.6 1-.2.1-.4.1-.6.1-.3 0-.5 0-.8-.2a.55.55 0 0 1-.3-.5c-.1-.2-.2-.2-.3-.1-.2.1-.3.3-.6.3h-.4zm10.1 0c-.2 0-.4-.1-.6-.3-.1-.1-.2-.1-.3.1-.2.4-.5.7-1 .6-.4 0-.8.1-1-.3-.2-.2-.3-.4-.3-.7v-2.4c0-.8.2-1.1.9-1.3h.5c.3.1.5.2.7.4.2-.5.5-.9 1.1-.9h.4c.2.1.5.2.6.3.2-.6.7-.9 1.2-.8.7 0 1.1.5 1.1 1 .1.9 0 1.7 0 2.6 0 .5-.2.9-.7 1.1a1.06 1.06 0 0 1-1.2-.1c-.2-.1-.2-.1-.3.1-.2.3-.5.6-.9.6.1 0-.1 0-.2 0z" fill="#73584e"/><path d="M12.4 94.2c-.1 0-.1-.1-.2-.1 0-.1-.1-.1-.2-.1-.7-.3-1.4-.5-2.1-.7-.4-.1-.7-.1-1.1-.2-.1-.4 0-.8 0-1.2v-.6c.1-.1 0-.2 0-.3v-.4c.1 0 .1.1.2.1l3.4 3.4v.1z" class="x"/><path d="M28.4 115.4V113c.1.1 0 .1 0 .2v2.1s.1.1 0 .1z" fill="#dcd5d3"/><path d="M8.7 91.9v1.2.1c-.1-.5-.1-.9 0-1.3z" fill="#dff5fc"/><path d="M18.3 104.4v-.7.7z" fill="#7ec7f5"/><path d="M51.4 93.1c-.1-.2-.1-.4 0-.6.1.2 0 .4 0 .6z" fill="#e0f5fc"/><path d="M51.4 93.8v-.6c.1.2.1.4 0 .6h0z" fill="#7ec7f5"/><path d="M33.2 111.8h-.5c.1 0 .3-.1.5 0zm-5.8 0h-.5c.1 0 .3-.1.5 0z" fill="#beb1ac"/><path d="M51.4 93.8h0v.5-.5z" fill="#a9d9f8"/><path d="M31.5 101.9a.45.45 0 0 1 .5 0h-.5z" fill="#ade6f8"/><path d="M27.7 101.9h.5-.5z" fill="#cef0fb"/><path d="M41.9 104.3a.45.45 0 0 1 0 .5v-.5z" fill="#90cff6"/><path d="M32.6 101.8c.1-.1.3 0 .4 0-.1.1-.2 0-.4 0z" fill="#d2f1fb"/><path d="M27 101.8h.4c-.2 0-.3.1-.4 0z" fill="#cbf0fa"/><path d="M34.9 116.1c.1-.1.3-.1.4 0h-.4z" fill="#99847d"/><path d="M25.1 111.3h-.4c.2-.1.3-.1.4 0z" fill="#ded8d6"/><path d="M8.8 93.8c.1.1.1.3 0 .4v-.4z" fill="#7ac5f5"/><path d="M35.3 111.3h-.4c.2-.1.3-.1.4 0z" fill="#ded8d6"/><path d="M24.8 116.1c.1-.1.2-.1.3 0h-.3z" fill="#99847d"/><path d="M8.8 91v.3c-.1-.1-.1-.2 0-.3z" fill="#cef0fa"/><path d="M51.4 92c-.1-.1 0-.2 0-.3v.3z" fill="#cef0fb"/><path d="M26.4 101.7h.3c-.1.1-.2.1-.3 0z" fill="#d2f2fb"/><path d="M28.2 101.9c.1 0 .2-.1.3 0h-.3z" fill="#a1e3f7"/><path d="M51.3 91.3c-.1-.1 0-.2 0-.3.1.1 0 .2 0 .3z" fill="#ccf0fa"/><path d="M18.3 103.6v-.3c.1.1 0 .2 0 .3z" fill="#a7d8f8"/><path d="M18.3 104.4c0 .1.1.2 0 .3v-.3z" fill="#a9d9f8"/><path d="M8.8 94.9c.1.1 0 .2 0 .3v-.3z" fill="#bce2fa"/><path d="M51.4 94.3h0c0 .1.1.2 0 .3v-.3z" fill="#d2ebfc"/><path d="M33.3 101.8c.1-.1.2 0 .3 0h-.3z" fill="#cff1fb"/><path d="M32.1 94.8v-.2-.6c-.1-.3-.2-.7-.4-.9-.3-.5-.8-.8-1.4-.9-.1 0-.1 0-.2-.1h-.4c-.8.1-1.4.5-1.8 1.3-.1.2-.1.4-.1.7v.7.5h-.2c-.3.3-.6.4-1 .6-.2.2-.4.2-.6.3-.5.2-1 .4-1.5.5s-1 .2-1.5.2h-1.1-.3c-.1-.1-.2 0-.3-.1-.8-.1-1.6-.3-2.4-.7-.8-.3-1.5-.8-2.1-1.4-.1 0-.1-.1-.2-.2-.3-.2-.5-.5-.8-.8-.3-.4-.6-.8-.8-1.3 0-.1-.1-.1-.1-.2-.1-.1-.1-.2-.2-.3s-.1-.2-.1-.3c-.1-.1-.1-.3-.2-.4s-.1-.3-.2-.5c-.2-.5-.3-1-.3-1.6-.1-.1 0-.2-.1-.3v-1.3c.1-.1 0-.2.1-.3.1-.9.3-1.8.7-2.6 0-.1 0-.2.1-.3.2-.2.3-.5.5-.8.8-1.1 1.8-2.1 3-2.7l.6-.3c.8-.4 1.6-.6 2.5-.7.1-.1.2 0 .3-.1.6 0 1.2-.1 1.8.1l1.5.3 1.5.6c.1.1.2.2.3.2.2 0 .3.1.4.3.2.2.4.3.7.5.1 0 .1.1.2.2l.6.6c.1 0 .1 0 .1.1l.8 1.1c.1.1.1 0 .2 0 0-.1.1-.2.2-.3 0-.1.1-.2.2-.2.1-.1.1-.2.2-.3 0-.1.1-.1.2-.2s.2-.2.2-.3c.1-.2.3-.4.6-.6.1-.1.2-.2.3-.2 0-.1.1-.1.2-.2s.2-.1.3-.2c0-.1.1-.1.2-.2s.2-.2.3-.2c0-.1.1-.1.2-.2.1 0 .1 0 .2-.1.1-.2.2-.2.3-.2h0c.1-.1.1-.1.2-.1.2-.1.5-.2.7-.3.1-.1.2-.1.3-.1s.1 0 .2-.1.3-.1.4-.1.3 0 .4-.1.2 0 .3-.1h.2c.1-.1.2 0 .3-.1h.6.3.5c.1.1.2 0 .3.1l1.5.3 1.5.6c.1 0 .2 0 .2.1.1.1.2.1.3.2.2.1.3.1.4.3h0c.1 0 .2.1.2.2h0c.1 0 .2.1.2.2s.1.1.2.2c.1 0 .1.1.2.2.1.2.3.3.4.4s.2.1.2.2.1.2.2.2.1.1.2.2c0 .1.1.2.2.3.2.1.3.3.4.6v.1c.1 0 .1.1.2.2.3.6.5 1.2.7 1.8.1.1.1.3.1.4 0 .3.1.5.1.7.1.1 0 .2.1.2v.5 1c0 .6-.1 1.2-.3 1.9v.2c0 .1 0 .2-.1.3-.1.3-.3.5-.3.8 0 .2-.1.3-.2.3 0 .1 0 .1-.1.2 0 .1-.1.2-.2.2-.1.1-.2.3-.3.4 0 .1-.1.2-.2.2v.1c0 .1-.1.1-.2.2 0 .1-.1.1-.1.2s-.1.1-.2.2c-.2.2-.5.4-.7.7.4.5.4.6.3.6s-.1.1-.2.1c0 .1-.1.1-.2.2h-.1c0 .1-.1.1-.2.2-.2 0-.3.2-.5.3 0 .1-.1.1-.2.2-.1 0-.1 0-.2.1s-.2.2-.3.2c-.3 0-.4.2-.7.3-.2.1-.4.2-.7.2s-.5.2-.8.2c-.1.1-.2 0-.2.1-.3 0-.6.1-.8.1-.3.1-.6 0-.8 0h-.3c-.3-.1-.7-.1-1-.2-.7-.1-1.4-.4-2-.6-.2-.1-.3-.2-.5-.3-.1 0-.2 0-.2-.1l-.1-.1c-.1 0-.2-.1-.2-.2 0 0-.1 0-.1-.1-.2-.1-.3-.1-.4-.3h-.1v-.1c.1-.1 0-.3 0-.4z" fill="#52b3f1"/><path d="M44.9 96.5c0 .2.1.5-.3.5l-.1.1c-.3.6-.7 1.1-1.1 1.7 0 .1 0 .1-.1.2-.1.2-.2.4-.4.3 0-.1 0-.1.1-.2 0-.2.1-.3.2-.3v-.1c0-.1.1-.2.2-.2.1-.2.2-.3.3-.5 0-.1.1-.2.2-.2 0-.1.1-.1.1-.2s.1-.2.2-.2c0 0 0-.1.1-.1 0-.1.1-.1.2-.2 0-.1.1-.1.1-.2s.1-.1.2-.2c-.1-.1 0-.2.1-.2zm4.9-3.1c0 .2 0 .3-.2.3s-.3.2-.5 0c0 .3-.3.2-.5.3-.1.1-.3.1-.4-.1.5-.1 1.1-.4 1.6-.5zm-3 1.5c0 .1 0 .3-.2.4s-.3.3-.5.3c0 0-.1 0-.1.1 0 .3-.3.3-.5.3.2-.3.5-.5.8-.7 0-.1.1-.1.2-.2.1-.2.2-.2.3-.2zm1-.7c0 .2 0 .4-.3.3h-.1c-.1.3-.3.2-.5.1 0-.1.1-.1.2-.1 0-.1.1-.1.2-.2h.1c.1 0 .3 0 .4-.1z" fill="#53b4f2"/><path d="M31.6 82.2l-.6.6s-.1-.1 0-.1c.1-.2.3-.4.5-.5 0-.1.1-.1.1 0zm8.1 14.5c.2-.1.4-.2.7-.2-.2.2-.5.3-.7.2z" class="x"/><path d="M36.7 97c.4-.1.7 0 1.1-.1-.3.2-.7.1-1.1.1z" fill="#70cbf3"/><path d="M44.7 84.1c-.1-.2-.3-.4-.4-.6.2.1.3.3.4.6z" class="x"/><path d="M45.8 89v-1c.1.3.1.7 0 1z" fill="#71cdf3"/><path d="M27.6 81.5c-.1-.1-.3-.2-.4-.3.2-.1.3.1.4.3zm13.5 14.7c.1-.1.2-.1.3-.2 0 .2-.1.3-.3.2zm2.1 2.5c-.1.1-.1.2-.2.3-.1-.2 0-.3.2-.3zm1.6-6.2c.1-.1.1-.2.2-.3.1.2 0 .3-.2.3zM19.2 80.7l-.6.3c.2-.2.4-.3.6-.3zm23.1.8c-.1-.1-.3-.2-.4-.3.2 0 .3.1.4.3zM32.2 95.3c.1.1.3.2.4.3-.2 0-.3-.1-.4-.3zm1.3-14.5c-.1.1-.2.1-.3.2 0-.2.2-.2.3-.2zm14.3 13.4c-.1.1-.2.1-.3.2-.1-.2.1-.2.3-.2zm-2.5 1.9c0 .1-.1.1-.2.2-.1-.1-.1-.1 0-.2s.1-.1.2 0zM14.5 91c.1.1.1.3.2.5-.2-.2-.2-.4-.2-.5zm20.3-10.7c-.1.1-.2.1-.3.1.1-.1.2-.2.3-.1zm10.6 11.1c0-.1 0-.2.1-.3.1.1 0 .2-.1.3zm.3-4.9c-.1-.1-.1-.3-.1-.4.1.1.1.3.1.4zm-10.2-6.4c-.1.1-.3.1-.4.1.1-.1.2-.1.4-.1zm-20.4 4.4c0 .1 0 .2-.1.3-.1-.1 0-.2.1-.3zm18.7-3.8c-.1.1-.1.1-.2.1 0-.1 0-.2.2-.1zM14.9 91.9c.1 0 .1.1.1.2-.1 0-.2-.1-.1-.2zm28.9-9.1c-.1 0-.1-.1-.2-.2.1.1.2 0 .2.2zM42.9 95c0-.1.1-.1.2-.2-.1.1-.1.3-.2.2zM28.4 82.2c-.1 0-.1-.1-.2-.2.2-.1.2 0 .2.2zm15.3 12c0-.1.1-.1.2-.2 0 .1 0 .1-.2.2zm-.6-12c-.1 0-.1-.1-.2-.2.2 0 .2 0 .2.2zm-30.7 12c.1-.1.2 0 .2.1 0 0-.1 0-.2-.1zm16.8-11.3l-.1-.1c0-.1.1-.1.1 0v.1zm-14 9.6c.1 0 .1.1.1.2-.1-.1-.3-.1-.1-.2zm29.4.4c.1-.1.1-.2.2-.2 0 .1-.1.2-.2.2zm-.5.7l.2-.2c0 .1 0 .2-.2.2zM37.5 80h-.3c.1-.1.2-.2.3 0zm-1.4 0c-.1.1-.2 0-.3.1.1-.2.2 0 .3-.1zm10.5 15l-.2.2c-.1-.2 0-.2.2-.2zm-32.3-7.5c0 .1 0 .2-.1.3 0-.1 0-.2.1-.3z" class="x"/><path d="M38.4 80c-.1 0-.2 0-.3-.1 0 .1.2 0 .3.1z" fill="#6dc9f2"/><g class="x"><path d="M32.7 95.6c.1.1.2.1.2.2-.1 0-.2 0-.2-.2zm8.9.3c.1-.1.2-.1.2-.2 0 .2-.1.2-.2.2zm3.2-11.6c-.1-.1-.1-.2-.2-.2.2 0 .2.1.2.2zm-2.1-2.4l-.2-.2c.1 0 .2 0 .2.2z"/><path d="M42.5 81.7l-.2-.2c.1 0 .2.1.2.2zm-10-.3l-.2.2c0-.2.1-.2.2-.2zm.5-.3c-.1.1-.2.1-.2.2 0-.2.1-.2.2-.2zm-2.5 2.3l-.2.2c0-.1 0-.1.2-.2zm12.9 15c-.1.1-.1.2-.2.2 0-.1.1-.2.2-.2zm.5-.6l-.2.2c0-.1 0-.2.2-.2zm.2-.4l-.2.2c.1-.1.1-.2.2-.2zm3.3-3c-.1.1-.2.1-.2.2 0-.1.1-.2.2-.2zm-3.3-11.2c-.1 0-.1-.1-.2-.2.1.1.2.1.2.2z"/></g><path d="M14.2 89.1c.1.1 0 .2.1.3-.1-.1-.1-.2-.1-.3z" fill="#6cc9f2"/><path d="M38.7 96.9c.1-.1.1 0 .2-.1 0 .2-.1.1-.2.1zm5.9-.2c0 .1-.1.1-.2.2.1-.1.1-.2.2-.2zm-3-15.7c-.1 0-.2 0-.2-.1 0 0 .1 0 .2.1zm2.8 16.1c0 .1-.1.1-.2.2 0-.2.1-.2.2-.2zM30.1 83.9c-.1.1-.1.2-.2 0h.2zM33 95.8c.1 0 .2 0 .2.1-.1.1-.2 0-.2-.1zm9.3-.4c0-.1.1-.1.2-.2 0 .2-.1.2-.2.2zM32 81.8c0 .1-.1.1-.2.2.1-.2.1-.2.2-.2zm12 12c0-.1.1-.1.2-.2-.1.2-.1.2-.2.2zM36.6 80c-.1.1-.2 0-.3.1.1-.2.2-.1.3-.1zm9.2 7.5c-.1-.1 0-.1-.1-.2.2 0 .1.1.1.2zm-3.3 7.8c0-.1.1-.1.2-.2 0 .1-.1.2-.2.2zM22 80c-.1.1-.2 0-.3.1.1-.2.2-.1.3-.1zm8.8 3c0 .1-.1.1-.2.2 0-.1.1-.2.2-.2zM12 94c.1-.1.2 0 .3.1-.2 0-.3 0-.3-.1zm14.3 2.2l.6-.3c-.2.3-.4.4-.6.3z" class="x"/><path d="M22.2 97h1.1c-.4.1-.8.1-1.1 0z" fill="#70cbf3"/><path d="M16.9 94.7c.1 0 .1.1.2.2-.2 0-.2 0-.2-.2zm4.6 2.2c.1 0 .2 0 .3.1-.1 0-.2 0-.3-.1z" class="x"/><path d="M27.9 94.8c-.1-.2-.1-.4 0-.7v.7z" fill="#5a9cc8"/><path d="M32.2 94c.1.2.1.4 0 .6V94z" fill="#5b9ac5"/><path d="M29.8 92.1c.1-.1.3-.1.4 0h-.4z" fill="#599ecc"/><path d="M32.1 94.8v.3-.3z" fill="#677a8a"/><path d="M20.3 87.8c0-.6.2-1.2.6-1.7.3-.4.7-.5 1.1-.6.1 0 .3 0 .4-.1h.7.2c0 .1-.1.2-.1.3-.7.9-.4 1.7.3 2.4.2.2.4.2.7.3h.3c.2 0 .4-.2.6-.1.1 0 .1.1 0 .1-.1.4 0 .9 0 1.3 0 .7-.2 1.3-.7 1.8-.6.6-1.3.8-2.1.7-1-.2-1.7-.8-2-1.8V90v-.3-1.3-.6zm17.4-2.3c.1 0 .2 0 .3.1-.2.3-.5.6-.5 1v.5c.1.5.3.9.8 1.2.4.2.8.2 1.2.2.1 0 .2-.1.3 0s0 .2.1.3v.5.8c-.1 1.2-.9 2.1-2 2.2-.1 0-.1.1-.2 0h-.4c-.5-.1-1-.2-1.4-.6-.5-.5-.8-1.1-.8-1.8v-.4-1.3c0-.6.1-1.1.3-1.7.3-.5.7-.8 1.3-1 .1 0 .3 0 .4-.1.1 0 .4 0 .6.1z" fill="#232528"/><path d="M24.2 88.4c-.4 0-.6-.2-.9-.4-.7-.8-.7-1.7 0-2.5 0 0 0-.1.1-.1 1 .3 1.7 1.1 1.7 2.1 0 .2.1.5 0 .7-.2 0-.4.2-.6.1-.1.2-.2.2-.3.1zm15.5 0c-.6.1-1.1.2-1.7-.3-.3-.2-.5-.6-.6-.9V87c.1-.2 0-.3 0-.5.1-.4.3-.7.6-1 1 .3 1.6.9 1.7 1.9 0 .4.1.7 0 1z" fill="#fafafa"/><path d="M34.9 88.2v1.3-1.3z" fill="#4690c0"/><path d="M20.3 88.4v1.4-1.4z" fill="#3a6c8c"/><path d="M25.1 89.7c0-.4-.1-.9 0-1.3v1.1.2z" fill="#2f485a"/><path d="M39.7 90v-.8c0 .2.1.5 0 .8zm-16.6-4.5h-.7c.2-.1.5-.1.7 0zm14.6 0H37c.2-.1.5-.1.7 0z" fill="#3a6d8d"/><path d="M20.3 88.4c0-.2-.1-.4 0-.6v.6z" fill="#4690c0"/><path d="M39.8 89.1s-.1 0 0 0v-.5.5z" fill="#4791c2"/><path d="M37.1 92.2c.1-.1.3-.1.4 0h-.4z" fill="#3b6f90"/><path d="M20.3 89.7v.3c-.1-.1 0-.2 0-.3z" fill="#468fbf"/><path d="M24.2 88.4h.3c-.1.1-.2.1-.3 0z" fill="#515255"/><path d="M37.4 86.5c0 .2.1.3 0 .5 0-.1-.1-.3 0-.5z" fill="#939ea7"/></svg>