<svg width="308" height="60" fill="none" xmlns="http://www.w3.org/2000/svg">
    <path d="M0 30C0 13.431 13.431 0 30 0h248c16.569 0 30 13.431 30 30 0 16.569-13.431 30-30 30H0V30Z" fill="#36343B" fill-opacity=".5"/>
    <path d="M25.46 24V10.4h2.24v5.7h6.6v-5.7h2.24V24H34.3v-6.08h-6.6V24h-2.24Zm18.304.26c-3.1 0-4.98-2.1-4.98-5.58 0-3.62 1.94-5.62 4.98-5.62 3.1 0 4.98 2.14 4.98 5.62 0 3.6-1.94 5.58-4.98 5.58Zm0-1.8c1.82 0 2.8-1.32 2.8-3.78 0-2.44-1-3.82-2.8-3.82-1.8 0-2.8 1.34-2.8 3.82 0 2.42 1 3.78 2.8 3.78ZM50.827 24V9.6h2.14V24h-2.14Zm8.727.26c-2.82 0-4.52-2.1-4.52-5.58 0-3.62 1.74-5.62 4.52-5.62 1.22 0 2.22.5 2.9 1.48V9.6h2.14V24h-2.14v-1.3c-.68 1-1.68 1.56-2.9 1.56Zm.28-1.8c1.7 0 2.62-1.32 2.62-3.78 0-2.44-.96-3.82-2.62-3.82-1.7 0-2.62 1.36-2.62 3.82 0 2.42.96 3.78 2.62 3.78Zm15.727 1.8c-3.1 0-4.98-2.1-4.98-5.58 0-3.62 1.94-5.62 4.98-5.62 3.1 0 4.98 2.14 4.98 5.62 0 3.6-1.94 5.58-4.98 5.58Zm0-1.8c1.82 0 2.8-1.32 2.8-3.78 0-2.44-1-3.82-2.8-3.82-1.8 0-2.8 1.34-2.8 3.82 0 2.42 1 3.78 2.8 3.78ZM82.624 24V13.34h2.14v1.42c.72-1.14 1.84-1.7 3.22-1.7 2.22 0 3.6 1.3 3.6 3.82V24h-2.12v-6.68c0-1.54-.68-2.48-2.14-2.48-1.6 0-2.56 1.42-2.56 2.9V24h-2.14Zm11.383 0v-2.46h2.48v1.32c0 1.92-.34 3.12-1.12 4.5h-1.16c.48-1.2.8-2.12.8-3.36h-1Zm9.592 4.66c-.46 0-.94-.12-1.18-.2v-1.64h.58c1.22 0 1.68-.24 2.6-2.46l.32-.74-4.28-10.28h2.3l2.64 6.64.46 1.46.46-1.46 2.56-6.64h2.18l-4.84 11.9c-1.08 2.66-1.9 3.42-3.8 3.42Zm14.325-4.4c-3.1 0-4.98-2.1-4.98-5.58 0-3.62 1.94-5.62 4.98-5.62 3.1 0 4.98 2.14 4.98 5.62 0 3.6-1.94 5.58-4.98 5.58Zm0-1.8c1.82 0 2.8-1.32 2.8-3.78 0-2.44-1-3.82-2.8-3.82-1.8 0-2.8 1.34-2.8 3.82 0 2.42 1 3.78 2.8 3.78Zm13.784-2.88v-6.24h2.12V24h-2.12v-1.44c-.7 1.14-1.82 1.7-3.18 1.7-2.18 0-3.54-1.28-3.54-3.8v-7.12h2.14v6.68c0 1.54.64 2.46 2.06 2.46 1.56 0 2.52-1.42 2.52-2.9Zm4.725 4.42V13.34h2.14v1.58c.7-1.28 1.8-1.86 3.04-1.86.42 0 .82.1 1.02.28v1.88c-.32-.1-.7-.14-1.14-.14-2.04 0-2.92 1.24-2.92 3.1V24h-2.14Zm11.582-11.98V9.6h2.14v2.42h-2.14Zm0 11.98V13.34h2.14V24h-2.14Zm4.726 0V13.34h2.14v1.42c.72-1.14 1.84-1.7 3.22-1.7 2.22 0 3.6 1.3 3.6 3.82V24h-2.12v-6.68c0-1.54-.68-2.48-2.14-2.48-1.6 0-2.56 1.42-2.56 2.9V24h-2.14Zm13.703 4.4h-2.14V13.34h2.14v1.28c.68-1 1.68-1.56 2.9-1.56 2.82 0 4.52 2.1 4.52 5.58 0 3.62-1.74 5.62-4.52 5.62-1.22 0-2.22-.5-2.9-1.48v5.62Zm2.64-13.54c-1.72 0-2.64 1.34-2.64 3.78 0 2.44.96 3.82 2.64 3.82 1.68 0 2.6-1.36 2.6-3.82 0-2.42-.96-3.78-2.6-3.78Zm13.581 4.72v-6.24h2.12V24h-2.12v-1.44c-.7 1.14-1.82 1.7-3.18 1.7-2.18 0-3.54-1.28-3.54-3.8v-7.12h2.14v6.68c0 1.54.64 2.46 2.06 2.46 1.56 0 2.52-1.42 2.52-2.9Zm5.005 1.24V15h-1.44v-1.66h1.44v-2.46h2.14v2.46h2.3V15h-2.3v5.7c0 1.22.34 1.8 1.84 1.8h.42v1.56c-.24.12-.74.2-1.34.2-2.08 0-3.06-1.14-3.06-3.44Zm9.974-8.8V9.6h2.14v2.42h-2.14Zm0 11.98V13.34h2.14V24h-2.14Zm6.426-7.86c0 2.72 6.82.44 6.82 4.78 0 2.02-1.82 3.34-4.4 3.34s-4.4-1.2-4.8-3.74h2.14c.22 1.34 1.22 2.08 2.72 2.08 1.44 0 2.2-.64 2.2-1.54 0-2.66-6.72-.42-6.72-4.8 0-1.66 1.3-3.2 4-3.2 2.38 0 4.14 1.1 4.48 3.76h-2.14c-.24-1.5-1.08-2.06-2.44-2.06-1.18 0-1.86.58-1.86 1.38ZM218.905 24h-2.14V9.6h2.14v4.98c.68-.98 1.68-1.52 2.9-1.52 2.8 0 4.5 2.1 4.5 5.58 0 3.62-1.74 5.62-4.5 5.62-1.22 0-2.22-.5-2.9-1.46V24Zm2.62-9.14c-1.72 0-2.62 1.34-2.62 3.78 0 2.44.94 3.82 2.62 3.82 1.68 0 2.6-1.34 2.6-3.82 0-2.42-.94-3.78-2.6-3.78Zm16.321 5.66c-.58 2.48-2.42 3.74-4.92 3.74-3.14 0-5.06-2.1-5.06-5.58 0-3.62 1.92-5.62 4.96-5.62 3.08 0 4.94 2.08 4.94 5.5v.52h-7.72c.12 2.18 1.14 3.4 2.88 3.4 1.36 0 2.32-.64 2.68-1.96h2.24Zm-5.02-5.68c-1.54 0-2.46.98-2.72 2.78h5.44c-.26-1.8-1.2-2.78-2.72-2.78Zm7.083-2.82V9.6h2.14v2.42h-2.14Zm0 11.98V13.34h2.14V24h-2.14Zm4.727 0V13.34h2.14v1.42c.72-1.14 1.84-1.7 3.22-1.7 2.22 0 3.6 1.3 3.6 3.82V24h-2.12v-6.68c0-1.54-.68-2.48-2.14-2.48-1.6 0-2.56 1.42-2.56 2.9V24h-2.14Zm15.402.06c-2.72 0-4.36-2.08-4.36-5.48 0-3.56 1.68-5.52 4.36-5.52 1.36 0 2.38.48 3.06 1.4v-1.12h2.14v11c0 2.92-1.94 4.34-4.5 4.34s-4.4-1.2-4.78-3.68h2.14c.2 1.28 1.22 1.96 2.62 1.96 1.42 0 2.38-.74 2.38-2.58v-1.8c-.72.98-1.76 1.48-3.06 1.48Zm.44-1.8c1.7 0 2.62-1.3 2.62-3.7 0-2.34-.96-3.7-2.62-3.7-1.7 0-2.62 1.3-2.62 3.72 0 2.34.94 3.68 2.62 3.68ZM27.44 52.4H25.3V37.34h2.14v1.28c.68-1 1.68-1.56 2.9-1.56 2.82 0 4.52 2.1 4.52 5.58 0 3.62-1.74 5.62-4.52 5.62-1.22 0-2.22-.5-2.9-1.48v5.62Zm2.64-13.54c-1.72 0-2.64 1.34-2.64 3.78 0 2.44.96 3.82 2.64 3.82 1.68 0 2.6-1.36 2.6-3.82 0-2.42-.96-3.78-2.6-3.78ZM36.94 48V37.34h2.14v1.58c.7-1.28 1.8-1.86 3.04-1.86.42 0 .82.1 1.02.28v1.88c-.32-.1-.7-.14-1.14-.14-2.04 0-2.92 1.24-2.92 3.1V48h-2.14Zm11.922.26c-3.1 0-4.98-2.1-4.98-5.58 0-3.62 1.94-5.62 4.98-5.62 3.1 0 4.98 2.14 4.98 5.62 0 3.6-1.94 5.58-4.98 5.58Zm0-1.8c1.82 0 2.8-1.32 2.8-3.78 0-2.44-1-3.82-2.8-3.82-1.8 0-2.8 1.34-2.8 3.82 0 2.42 1 3.78 2.8 3.78Zm16.083-5.4h-2.14c-.26-1.52-1.24-2.2-2.48-2.2-1.78 0-2.74 1.36-2.74 3.82 0 2.42 1 3.8 2.8 3.8 1.28 0 2.18-.7 2.5-2.06h2.12c-.46 2.66-2.3 3.84-4.66 3.84-3.08 0-4.94-2.12-4.94-5.58 0-3.62 1.9-5.62 4.92-5.62 2.38 0 4.26 1.34 4.62 4Zm11.514 3.46c-.58 2.48-2.42 3.74-4.92 3.74-3.14 0-5.06-2.1-5.06-5.58 0-3.62 1.92-5.62 4.96-5.62 3.08 0 4.94 2.08 4.94 5.5v.52h-7.72c.12 2.18 1.14 3.4 2.88 3.4 1.36 0 2.32-.64 2.68-1.96h2.24Zm-5.02-5.68c-1.54 0-2.46.98-2.72 2.78h5.44c-.26-1.8-1.2-2.78-2.72-2.78Zm8.784 1.3c0 2.72 6.82.44 6.82 4.78 0 2.02-1.82 3.34-4.4 3.34s-4.4-1.2-4.8-3.74h2.14c.22 1.34 1.22 2.08 2.72 2.08 1.44 0 2.2-.64 2.2-1.54 0-2.66-6.72-.42-6.72-4.8 0-1.66 1.3-3.2 4-3.2 2.38 0 4.14 1.1 4.48 3.76h-2.14c-.24-1.5-1.08-2.06-2.44-2.06-1.18 0-1.86.58-1.86 1.38Zm10.468 0c0 2.72 6.82.44 6.82 4.78 0 2.02-1.82 3.34-4.4 3.34s-4.4-1.2-4.8-3.74h2.14c.22 1.34 1.22 2.08 2.72 2.08 1.44 0 2.2-.64 2.2-1.54 0-2.66-6.72-.42-6.72-4.8 0-1.66 1.3-3.2 4-3.2 2.38 0 4.14 1.1 4.48 3.76h-2.14c-.24-1.5-1.08-2.06-2.44-2.06-1.18 0-1.86.58-1.86 1.38Zm18.229 4.38c-.58 2.48-2.42 3.74-4.92 3.74-3.14 0-5.06-2.1-5.06-5.58 0-3.62 1.92-5.62 4.96-5.62 3.08 0 4.94 2.08 4.94 5.5v.52h-7.72c.12 2.18 1.14 3.4 2.88 3.4 1.36 0 2.32-.64 2.68-1.96h2.24Zm-5.02-5.68c-1.54 0-2.46.98-2.72 2.78h5.44c-.26-1.8-1.2-2.78-2.72-2.78Zm11.084 9.42c-2.82 0-4.52-2.1-4.52-5.58 0-3.62 1.74-5.62 4.52-5.62 1.22 0 2.22.5 2.9 1.48V33.6h2.14V48h-2.14v-1.3c-.68 1-1.68 1.56-2.9 1.56Zm.28-1.8c1.7 0 2.62-1.32 2.62-3.78 0-2.44-.96-3.82-2.62-3.82-1.7 0-2.62 1.36-2.62 3.82 0 2.42.96 3.78 2.62 3.78Zm7.161 1.54v-2.46h2.48V48h-2.48Zm4.726 0v-2.46h2.48V48h-2.48Zm4.727 0v-2.46h2.48V48h-2.48Z" fill="#78FCB0"/>
</svg>
